<svg width="960" height="640" viewBox="0 0 960 640" fill="none" xmlns="http://www.w3.org/2000/svg">
  <rect width="960" height="640" rx="24" fill="#F6F8FD"/>
  <rect x="36" y="30" width="888" height="70" rx="20" fill="#FFFFFF"/>
  <rect x="68" y="52" width="174" height="26" rx="13" fill="#E9EDFF"/>
  <rect x="274" y="56" width="88" height="18" rx="9" fill="#F3F6FC"/>
  <rect x="376" y="56" width="88" height="18" rx="9" fill="#F3F6FC"/>
  <rect x="760" y="48" width="56" height="34" rx="17" fill="#FFFFFF" stroke="#E2E8F3"/>
  <rect x="830" y="48" width="56" height="34" rx="17" fill="#0F172A"/>
  <rect x="36" y="124" width="178" height="476" rx="24" fill="#F5F8FD"/>
  <rect x="62" y="156" width="126" height="40" rx="16" fill="#FFFFFF"/>
  <rect x="78" y="168" width="20" height="16" rx="8" fill="#4F46E5"/>
  <rect x="110" y="169" width="54" height="14" rx="7" fill="#0F172A"/>
  <rect x="62" y="224" width="96" height="14" rx="7" fill="#CDD9EA"/>
  <rect x="62" y="264" width="96" height="14" rx="7" fill="#CDD9EA"/>
  <rect x="62" y="304" width="96" height="14" rx="7" fill="#CDD9EA"/>
  <rect x="62" y="344" width="96" height="14" rx="7" fill="#CDD9EA"/>
  <rect x="62" y="384" width="96" height="14" rx="7" fill="#CDD9EA"/>
  <rect x="62" y="432" width="126" height="1" rx="0.5" fill="#D8E1EF"/>
  <rect x="62" y="462" width="102" height="14" rx="7" fill="#CBD8F0"/>
  <rect x="62" y="502" width="96" height="14" rx="7" fill="#CDD9EA"/>
  <rect x="242" y="124" width="682" height="220" rx="28" fill="#FFFFFF"/>
  <rect x="276" y="162" width="158" height="20" rx="10" fill="#EEF2FF"/>
  <rect x="276" y="198" width="328" height="28" rx="14" fill="#0F172A"/>
  <rect x="276" y="238" width="276" height="16" rx="8" fill="#D7E1F0"/>
  <rect x="276" y="298" width="126" height="42" rx="16" fill="#0F172A"/>
  <rect x="418" y="298" width="142" height="42" rx="16" fill="#FFFFFF" stroke="#E2E8F3"/>
  <rect x="694" y="160" width="196" height="148" rx="22" fill="#F8FAFF"/>
  <rect x="722" y="188" width="110" height="16" rx="8" fill="#0F172A"/>
  <rect x="722" y="220" width="132" height="12" rx="6" fill="#D7E1F0"/>
  <rect x="722" y="250" width="140" height="36" rx="14" fill="#FFFFFF" stroke="#E2E8F3"/>
  <rect x="242" y="372" width="326" height="228" rx="24" fill="#FFFFFF"/>
  <rect x="242" y="432" width="326" height="1" fill="#E6EDF7"/>
  <rect x="274" y="404" width="122" height="16" rx="8" fill="#0F172A"/>
  <rect x="490" y="400" width="52" height="24" rx="12" fill="#EAFBF2"/>
  <rect x="274" y="470" width="122" height="12" rx="6" fill="#D7E1F0"/>
  <rect x="274" y="498" width="96" height="44" rx="16" fill="#F8FAFF" stroke="#E2E8F3"/>
  <rect x="382" y="498" width="96" height="44" rx="16" fill="#F8FAFF" stroke="#E2E8F3"/>
  <rect x="490" y="498" width="52" height="44" rx="16" fill="#F8FAFF" stroke="#E2E8F3"/>
  <rect x="588" y="372" width="336" height="228" rx="24" fill="#FFFFFF"/>
  <rect x="588" y="432" width="336" height="1" fill="#E6EDF7"/>
  <rect x="620" y="404" width="144" height="16" rx="8" fill="#0F172A"/>
  <rect x="814" y="400" width="84" height="24" rx="12" fill="#F8FAFF" stroke="#E2E8F3"/>
  <rect x="620" y="468" width="272" height="1" stroke="#E8EEF8" stroke-dasharray="4 4"/>
  <rect x="620" y="506" width="272" height="1" stroke="#E8EEF8" stroke-dasharray="4 4"/>
  <rect x="620" y="544" width="272" height="1" stroke="#E8EEF8" stroke-dasharray="4 4"/>
  <path d="M656 520C680 488 704 476 728 476C752 476 776 548 800 548C824 548 848 436 872 450" stroke="#5B5BF7" stroke-width="8" stroke-linecap="round"/>
</svg>
